<svg width="21" height="22" viewBox="0 0 21 22" fill="none" xmlns="http://www.w3.org/2000/svg">
<path d="M17.5521 21.849C17.4132 21.849 17.283 21.8273 17.1615 21.7839C17.0399 21.7405 16.9271 21.6667 16.8229 21.5625L11.5104 16.25C11.4062 16.1458 11.3325 16.033 11.2891 15.9115C11.2457 15.7899 11.224 15.6597 11.224 15.5208C11.224 15.3819 11.2457 15.2517 11.2891 15.1302C11.3325 15.0087 11.4062 14.8958 11.5104 14.7917L13.724 12.5781C13.8281 12.474 13.941 12.4002 14.0625 12.3568C14.184 12.3134 14.3142 12.2917 14.4531 12.2917C14.592 12.2917 14.7222 12.3134 14.8438 12.3568C14.9653 12.4002 15.0781 12.474 15.1823 12.5781L20.4948 17.8906C20.599 17.9948 20.6727 18.1076 20.7161 18.2292C20.7595 18.3507 20.7812 18.4809 20.7812 18.6198C20.7812 18.7587 20.7595 18.8889 20.7161 19.0104C20.6727 19.1319 20.599 19.2448 20.4948 19.349L18.2812 21.5625C18.1771 21.6667 18.0642 21.7405 17.9427 21.7839C17.8212 21.8273 17.691 21.849 17.5521 21.849ZM17.5521 19.375L18.3073 18.6198L14.4792 14.7917L13.724 15.5469L17.5521 19.375ZM3.25521 21.875C3.11632 21.875 2.98177 21.849 2.85156 21.7969C2.72135 21.7448 2.60417 21.6667 2.5 21.5625L0.3125 19.375C0.208333 19.2708 0.130208 19.1536 0.078125 19.0234C0.0260417 18.8932 0 18.7587 0 18.6198C0 18.4809 0.0260417 18.3507 0.078125 18.2292C0.130208 18.1076 0.208333 17.9948 0.3125 17.8906L5.83333 12.3698H8.04688L8.93229 11.4844L4.63542 7.1875H3.15104L0 4.03646L2.94271 1.09375L6.09375 4.24479V5.72917L10.3906 10.026L13.4115 7.00521L12.2917 5.88542L13.75 4.42708H10.8073L10.0781 3.69792L13.776 0L14.5052 0.729167V3.67188L15.9635 2.21354L19.6615 5.91146C19.9566 6.2066 20.1823 6.5408 20.3385 6.91406C20.4948 7.28733 20.5729 7.68229 20.5729 8.09896C20.5729 8.51562 20.4948 8.91493 20.3385 9.29688C20.1823 9.67882 19.9566 10.0174 19.6615 10.3125L17.4479 8.09896L15.9896 9.55729L14.8958 8.46354L9.50521 13.8542V16.0417L3.98438 21.5625C3.88021 21.6667 3.76736 21.7448 3.64583 21.7969C3.52431 21.849 3.3941 21.875 3.25521 21.875ZM3.25521 19.375L7.68229 14.9479V14.1927H6.92708L2.5 18.6198L3.25521 19.375ZM3.25521 19.375L2.5 18.6198L2.89062 18.9844L3.25521 19.375Z" fill="#3B3B3B"/>
</svg>
